<svg width="48" height="48" viewBox="0 0 48 48" fill="none" xmlns="http://www.w3.org/2000/svg">
<path d="M15.7339 20.125C16.8379 20.125 17.7339 19.229 17.7339 18.125V10.325C17.7339 6.838 20.5709 4 24.0579 4C27.5449 4 30.3829 6.838 30.3829 10.325V18.125C30.3829 19.229 31.2779 20.125 32.3829 20.125C33.4869 20.125 34.3829 19.229 34.3829 18.125V10.325C34.3839 4.632 29.7519 0 24.0579 0C18.3659 0 13.7339 4.632 13.7339 10.325V18.125C13.7339 19.229 14.6299 20.125 15.7339 20.125Z" fill="url(#paint0_linear_149540_3594)"/>
<path fill-rule="evenodd" clip-rule="evenodd" d="M36.384 15.6309H47C47.553 15.6309 47.893 16.0649 47.762 16.6019L40.766 45.0989C40.342 46.7009 38.658 47.9999 37 47.9999H11C9.34397 47.9999 7.65797 46.7009 7.23597 45.0989L0.23797 16.6019C0.10697 16.0659 0.447971 15.6309 0.999971 15.6309H11.735V18.1249C11.735 20.3309 13.529 22.1249 15.735 22.1249C17.941 22.1249 19.735 20.3309 19.735 18.1249V15.6309H28.384V18.1249C28.384 20.3309 30.178 22.1249 32.384 22.1249C34.59 22.1249 36.384 20.3309 36.384 18.1249V15.6309ZM22.0001 25C21.2266 25 20.6001 25.6265 20.6001 26.4L20.6 37.25C18.8136 36.3407 18.0023 36.2 17.1 36.2C16.0526 36.2 15.0051 36.6033 15 37.9402L18.15 39.35L20.3599 41.5599C21.4099 42.6099 22.8344 43.2 24.3198 43.2H29C30.5463 43.2 31.8 41.9463 31.8 40.4V33.4C31.8 32.6268 31.1732 32 30.4 32C29.9228 32 29.5014 32.9655 29.2486 33.5444C29.2049 33.6446 29.1662 33.7333 29.1332 33.8033C29.0411 33.7411 29 32.7 29 32.7C28.9999 31.9268 28.3731 31.3 27.6 31.3C26.8346 31.3 26.2127 32.9141 26.2001 33.6764V32C26.2001 31.2265 25.5736 30.6 24.8001 30.6C24.0266 30.6 23.4001 31.2265 23.4001 32L23.4001 33.35V26.4C23.4001 25.6265 22.7736 25 22.0001 25Z" fill="url(#paint1_linear_149540_3594)"/>
<defs>
<linearGradient id="paint0_linear_149540_3594" x1="24.0584" y1="0" x2="24.0584" y2="20.125" gradientUnits="userSpaceOnUse">
<stop stop-color="#EF8080"/>
<stop offset="1" stop-color="#F0145A"/>
</linearGradient>
<linearGradient id="paint1_linear_149540_3594" x1="24" y1="15.6309" x2="24" y2="47.9999" gradientUnits="userSpaceOnUse">
<stop stop-color="#EF8080"/>
<stop offset="1" stop-color="#F0145A"/>
</linearGradient>
</defs>
</svg>
